<?xml version="1.0" encoding="UTF-8" standalone="no"?>
<!-- Created with Inkscape (http://www.inkscape.org/) -->

<svg
   xmlns:dc="http://purl.org/dc/elements/1.1/"
   xmlns:cc="http://creativecommons.org/ns#"
   xmlns:rdf="http://www.w3.org/1999/02/22-rdf-syntax-ns#"
   xmlns:svg="http://www.w3.org/2000/svg"
   xmlns="http://www.w3.org/2000/svg"
   xmlns:xlink="http://www.w3.org/1999/xlink"
   xmlns:sodipodi="http://sodipodi.sourceforge.net/DTD/sodipodi-0.dtd"
   xmlns:inkscape="http://www.inkscape.org/namespaces/inkscape"
   width="60"
   height="60"
   viewBox="0 0 59.999998 60"
   id="svg2"
   version="1.1"
   inkscape:version="0.91 r13725"
   sodipodi:docname="logo.svg">
  <defs
     id="defs4">
    <linearGradient
       id="linearGradient4175"
       inkscape:collect="always">
      <stop
         id="stop4177"
         offset="0"
         style="stop-color:#333333;stop-opacity:1;" />
      <stop
         id="stop4179"
         offset="1"
         style="stop-color:#606060;stop-opacity:1" />
    </linearGradient>
    <linearGradient
       inkscape:collect="always"
       id="linearGradient4165">
      <stop
         style="stop-color:#333333;stop-opacity:1;"
         offset="0"
         id="stop4167" />
      <stop
         style="stop-color:#606060;stop-opacity:1"
         offset="1"
         id="stop4169" />
    </linearGradient>
    <linearGradient
       inkscape:collect="always"
       id="linearGradient4153">
      <stop
         style="stop-color:#39acd0;stop-opacity:1;"
         offset="0"
         id="stop4155" />
      <stop
         style="stop-color:#77d8f6;stop-opacity:1"
         offset="1"
         id="stop4157" />
    </linearGradient>
    <linearGradient
       inkscape:collect="always"
       xlink:href="#linearGradient4153"
       id="linearGradient4163"
       x1="216.90858"
       y1="332.47464"
       x2="216.90858"
       y2="320.08136"
       gradientUnits="userSpaceOnUse" />
    <linearGradient
       inkscape:collect="always"
       xlink:href="#linearGradient4175"
       id="linearGradient4171"
       x1="195.9471"
       y1="361.00644"
       x2="195.9471"
       y2="335.47623"
       gradientUnits="userSpaceOnUse" />
    <linearGradient
       inkscape:collect="always"
       xlink:href="#linearGradient4165"
       id="linearGradient4173"
       x1="213.28558"
       y1="361.73785"
       x2="213.28558"
       y2="320.83997"
       gradientUnits="userSpaceOnUse" />
  </defs>
  <sodipodi:namedview
     id="base"
     pagecolor="#ffffff"
     bordercolor="#666666"
     borderopacity="1.0"
     inkscape:pageopacity="0.0"
     inkscape:pageshadow="2"
     inkscape:zoom="2.017218"
     inkscape:cx="194.78926"
     inkscape:cy="-64.271864"
     inkscape:document-units="px"
     inkscape:current-layer="layer1"
     showgrid="false"
     fit-margin-top="0"
     fit-margin-left="0"
     fit-margin-right="0"
     fit-margin-bottom="0"
     units="px"
     inkscape:window-width="1916"
     inkscape:window-height="1052"
     inkscape:window-x="0"
     inkscape:window-y="24"
     inkscape:window-maximized="1" />
  <metadata
     id="metadata7">
    <rdf:RDF>
      <cc:Work
         rdf:about="">
        <dc:format>image/svg+xml</dc:format>
        <dc:type
           rdf:resource="http://purl.org/dc/dcmitype/StillImage" />
        <dc:title></dc:title>
      </cc:Work>
    </rdf:RDF>
  </metadata>
  <g
     inkscape:label="Calque 1"
     inkscape:groupmode="layer"
     id="layer1"
     transform="translate(-184.66919,-314.4688)">
    <g
       style="font-style:normal;font-weight:normal;font-size:40px;line-height:125%;font-family:sans-serif;letter-spacing:0px;word-spacing:0px;fill:#000000;fill-opacity:1;stroke:none;stroke-width:1px;stroke-linecap:butt;stroke-linejoin:miter;stroke-opacity:1"
       id="text4136"
       transform="translate(3.3110731,-2.753905)">
      <path
         d="m 199.37622,335.44534 q 2.05078,0 2.95899,1.05469 0.9082,1.05469 0.9082,2.57813 0,1.99218 -1.66992,4.01367 -1.64063,1.99218 -3.92578,3.39843 -2.28516,1.37696 -4.59961,2.25586 -2.28516,0.87891 -3.69141,0.87891 -0.11719,0.35156 -0.11719,1.875 0,2.87109 0.9668,4.59961 0.99609,1.72852 3.07617,1.72852 0.46875,0 0.9961,-0.17579 0.55664,-0.17578 1.02539,-0.43945 0.49804,-0.26367 0.99609,-0.61523 0.52734,-0.38086 0.9082,-0.73243 0.41016,-0.35156 0.82032,-0.73242 0.41015,-0.38086 0.64453,-0.64453 0.23437,-0.23437 0.43945,-0.46875 l 0.20508,-0.23437 q 0.14648,0 0.41016,0.46875 0.29296,0.43945 0.29296,0.70312 -0.35156,0.58594 -1.23046,1.55274 -0.87891,0.96679 -2.10938,2.08007 -1.23047,1.11329 -2.75391,1.9043 -1.52343,0.79102 -2.8125,0.79102 -3.10546,0 -4.77539,-2.19727 -1.66992,-2.19726 -1.66992,-6.29883 0,-3.13476 1.34766,-6.32812 1.37695,-3.22266 3.45703,-5.59571 2.10937,-2.40234 4.74609,-3.89648 2.66602,-1.52344 5.15625,-1.52344 z m -9.90234,12.71485 q 0.9082,0 2.43164,-0.64453 1.55273,-0.67383 3.13477,-1.69922 1.58203,-1.02539 2.7246,-2.54883 1.14258,-1.55274 1.14258,-3.07617 0,-1.11328 -0.76172,-1.72852 -0.76171,-0.61523 -1.69921,-0.61523 -1.43555,0 -2.75391,1.17187 -1.28906,1.17188 -2.16797,2.8711 -0.84961,1.69921 -1.40625,3.36914 -0.52734,1.66992 -0.64453,2.90039 z"
         style="fill:url(#linearGradient4171);fill-opacity:1"
         id="path4147"
         inkscape:connector-curvature="0" />
      <path
         d="m 208.01214,328.17972 q 0.52734,-2.37305 0.52734,-3.10547 0,-1.11328 -3.57421,-1.11328 -0.11719,-0.17578 -0.0293,-0.61524 0.0879,-0.43945 0.26367,-0.61523 3.22266,-0.29297 7.73438,-1.93359 0.35156,0.20507 0.35156,1.11328 0,0.58593 -0.76172,4.39453 l -5.56641,28.41797 q -0.23437,0.9375 -0.23437,1.875 0,1.46484 0.58594,1.46484 0.29296,0 0.70312,-0.23437 0.43945,-0.26368 0.84961,-0.61524 0.43945,-0.35156 0.87891,-0.79101 0.46875,-0.43946 0.79101,-0.79102 0.29297,-0.38086 0.58594,-0.67383 l 0.29297,-0.29297 q 0.14648,0 0.35156,0.43946 0.23438,0.41015 0.23438,0.67382 -0.73243,1.23047 -3.31055,3.36914 -2.54883,2.13868 -4.36524,2.13868 -0.9375,0 -1.46484,-0.84961 -0.52734,-0.84961 -0.52734,-2.19727 0,-0.9375 0.41015,-3.10547 l 5.27344,-26.95312 z"
         style="fill:url(#linearGradient4173);fill-opacity:1"
         id="path4149"
         inkscape:connector-curvature="0" />
      <path
         d="m 235.99626,341.59769 -2.98829,13.125 q -0.23437,1.17187 -0.23437,1.875 0,1.46484 0.58594,1.46484 0.29297,0 0.70312,-0.23437 0.43946,-0.26368 0.84961,-0.61524 0.43945,-0.35156 0.87891,-0.79101 0.46875,-0.43946 0.76172,-0.79102 0.32226,-0.38086 0.61523,-0.67383 l 0.29297,-0.29297 q 0.14648,0 0.35156,0.43946 0.23438,0.41015 0.23438,0.67382 -0.73242,1.23047 -3.31055,3.36914 -2.54883,2.13868 -4.36523,2.13868 -0.90821,0 -1.46485,-0.84961 -0.52734,-0.84961 -0.52734,-2.19727 0,-1.37695 0.41015,-3.10547 l 2.57813,-11.36718 q 0.17578,-1.23047 0.17578,-1.64063 0,-1.08398 -0.38086,-1.8457 -0.38086,-0.79102 -1.14258,-0.79102 -1.49414,0 -3.66211,0.0879 -2.13867,0.0879 -3.54492,0.14649 l -1.40625,0.0586 q -0.11719,0 -0.17578,0.0293 -0.0293,0 -0.0879,0.11718 -0.0586,0.0879 -0.0879,0.32227 l -3.22266,17.51953 q -0.73242,4.16016 -2.10937,7.41211 -1.34766,3.28125 -3.07617,5.27344 -1.69922,1.99219 -3.60352,2.98828 -1.9043,1.02539 -3.86719,1.02539 -2.02148,0 -3.22265,-0.76172 -1.20117,-0.73242 -1.52344,-1.64062 -0.0586,-1.34766 0.67383,-2.40235 0.70312,-1.05468 1.72851,-1.05468 0.52735,0 1.02539,0.55664 0.46875,0.55664 0.82032,1.23046 0.35156,0.67383 1.02539,1.23047 0.64453,0.55664 1.46484,0.55664 1.14258,0 2.25586,-1.40625 1.08398,-1.37695 1.875,-3.45703 0.82031,-2.05078 1.34766,-3.92578 0.52734,-1.875 0.79101,-3.33984 l 3.51563,-19.86328 0,-0.11719 q 0,-0.29297 -0.17578,-0.29297 l -3.8086,0 q -0.11719,0 -0.11719,-0.17578 0,-0.52734 0.9375,-1.52344 0.9668,-0.99609 1.875,-0.99609 l 1.69922,0 q 0.23438,0 0.35157,-0.52735 1.17187,-7.17773 5.03906,-11.86523 3.86719,-4.7168 8.32031,-4.7168 2.13867,0 3.16406,0.41016 1.05469,0.41016 1.875,1.17187 1.37696,1.28907 1.875,2.46094 0,1.40625 -0.70312,2.57813 -0.67383,1.17187 -1.9336,1.17187 -0.46875,0 -0.8496,-0.14648 -0.35157,-0.17578 -0.67383,-0.55664 -0.32227,-0.38086 -0.49805,-0.61524 -0.17578,-0.26367 -0.49805,-0.84961 -0.0586,-0.0879 -0.26367,-0.43945 -0.17578,-0.35156 -0.26367,-0.46875 -0.0586,-0.14648 -0.26367,-0.46875 -0.20508,-0.32227 -0.32227,-0.43945 -0.0879,-0.14649 -0.32226,-0.41016 -0.20508,-0.29297 -0.38086,-0.41016 -0.14649,-0.11718 -0.41016,-0.29296 -0.26367,-0.17579 -0.49805,-0.26368 -0.23437,-0.0879 -0.52734,-0.14648 -0.29297,-0.0586 -0.61523,-0.0586 -1.72852,0 -3.69141,3.25195 -1.93359,3.25195 -3.16406,9.11133 -0.0586,0.32226 -0.20508,1.05468 -0.14649,0.70313 -0.20508,1.11329 l 0,0.11718 q 0,0.23438 0.17578,0.23438 1.17188,0 4.33594,-0.0879 3.19336,-0.11719 3.92578,-0.20508 3.69141,-0.35156 5.50781,-0.35156 0.20508,0 0.49805,0.32226 0.32227,0.32227 0.32227,0.67383 0,0.41016 -0.14649,1.9043 -0.14648,1.46484 -0.32226,2.25586 z"
         style="fill:url(#linearGradient4163);fill-opacity:1"
         id="path4151"
         inkscape:connector-curvature="0" />
    </g>
  </g>
</svg>
